<svg width="363" height="231" viewBox="0 0 363 231" fill="none" xmlns="http://www.w3.org/2000/svg">
<g filter="url(#filter0_d_6401_464)">
<rect x="8" y="6" width="331" height="199" rx="20" fill="url(#paint0_linear_6401_464)"/>
<rect x="273" y="145" width="45.3333" height="32" rx="4" fill="white" fill-opacity="0.1"/>
<g clip-path="url(#clip0_6401_464)">
<path d="M302.481 155H311.789L303.75 168H294.442L302.481 155Z" fill="#FF7A00"/>
<path d="M294.019 155H300.789L292.75 168H285.981L294.019 155Z" fill="#FF9736"/>
<path d="M287.25 155H292.327L284.288 168H279.211L287.25 155Z" fill="#FFBC7D"/>
</g>
<path d="M32.864 44.112C32.1173 44.112 31.4453 43.984 30.848 43.728C30.2507 43.4613 29.7813 43.088 29.44 42.608C29.0987 42.128 28.928 41.568 28.928 40.928H30.88C30.9227 41.408 31.1093 41.8027 31.44 42.112C31.7813 42.4213 32.256 42.576 32.864 42.576C33.4933 42.576 33.984 42.4267 34.336 42.128C34.688 41.8187 34.864 41.424 34.864 40.944C34.864 40.5707 34.752 40.2667 34.528 40.032C34.3147 39.7973 34.0427 39.616 33.712 39.488C33.392 39.36 32.944 39.2213 32.368 39.072C31.6427 38.88 31.0507 38.688 30.592 38.496C30.144 38.2933 29.76 37.984 29.44 37.568C29.12 37.152 28.96 36.5973 28.96 35.904C28.96 35.264 29.12 34.704 29.44 34.224C29.76 33.744 30.208 33.376 30.784 33.12C31.36 32.864 32.0267 32.736 32.784 32.736C33.8613 32.736 34.7413 33.008 35.424 33.552C36.1173 34.0853 36.5013 34.8213 36.576 35.76H34.56C34.528 35.3547 34.336 35.008 33.984 34.72C33.632 34.432 33.168 34.288 32.592 34.288C32.0693 34.288 31.6427 34.4213 31.312 34.688C30.9813 34.9547 30.816 35.3387 30.816 35.84C30.816 36.1813 30.9173 36.464 31.12 36.688C31.3333 36.9013 31.6 37.072 31.92 37.2C32.24 37.328 32.6773 37.4667 33.232 37.616C33.968 37.8187 34.5653 38.0213 35.024 38.224C35.4933 38.4267 35.888 38.7413 36.208 39.168C36.5387 39.584 36.704 40.144 36.704 40.848C36.704 41.4133 36.5493 41.9467 36.24 42.448C35.9413 42.9493 35.4987 43.3547 34.912 43.664C34.336 43.9627 33.6533 44.112 32.864 44.112ZM38.2483 39.552C38.2483 38.6667 38.4296 37.8827 38.7923 37.2C39.1656 36.5173 39.6669 35.9893 40.2963 35.616C40.9363 35.232 41.6403 35.04 42.4083 35.04C43.1016 35.04 43.7043 35.1787 44.2163 35.456C44.7389 35.7227 45.1549 36.0587 45.4643 36.464V35.184H47.3043V44H45.4643V42.688C45.1549 43.104 44.7336 43.4507 44.2003 43.728C43.6669 44.0053 43.0589 44.144 42.3763 44.144C41.6189 44.144 40.9256 43.952 40.2963 43.568C39.6669 43.1733 39.1656 42.6293 38.7923 41.936C38.4296 41.232 38.2483 40.4373 38.2483 39.552ZM45.4643 39.584C45.4643 38.976 45.3363 38.448 45.0803 38C44.8349 37.552 44.5096 37.2107 44.1043 36.976C43.6989 36.7413 43.2616 36.624 42.7923 36.624C42.3229 36.624 41.8856 36.7413 41.4803 36.976C41.0749 37.2 40.7443 37.536 40.4883 37.984C40.2429 38.4213 40.1203 38.944 40.1203 39.552C40.1203 40.16 40.2429 40.6933 40.4883 41.152C40.7443 41.6107 41.0749 41.9627 41.4803 42.208C41.8963 42.4427 42.3336 42.56 42.7923 42.56C43.2616 42.56 43.6989 42.4427 44.1043 42.208C44.5096 41.9733 44.8349 41.632 45.0803 41.184C45.3363 40.7253 45.4643 40.192 45.4643 39.584ZM53.188 39.6L57.252 44H54.788L51.524 40.208V44H49.7V32.16H51.524V39.04L54.724 35.184H57.252L53.188 39.6ZM66.5434 35.184V44H64.7194V42.96C64.4314 43.3227 64.0527 43.6107 63.5834 43.824C63.1247 44.0267 62.634 44.128 62.1114 44.128C61.418 44.128 60.794 43.984 60.2394 43.696C59.6954 43.408 59.2634 42.9813 58.9434 42.416C58.634 41.8507 58.4794 41.168 58.4794 40.368V35.184H60.2874V40.096C60.2874 40.8853 60.4847 41.4933 60.8794 41.92C61.274 42.336 61.8127 42.544 62.4954 42.544C63.178 42.544 63.7167 42.336 64.1114 41.92C64.5167 41.4933 64.7194 40.8853 64.7194 40.096V35.184H66.5434ZM73.878 44L70.438 40.128V44H68.982V32.16H70.438V39.12L73.814 35.232H75.846L71.718 39.6L75.862 44H73.878ZM84.9924 35.232V44H83.5364V42.704C83.259 43.152 82.8697 43.504 82.3684 43.76C81.8777 44.0053 81.3337 44.128 80.7364 44.128C80.0537 44.128 79.4404 43.9893 78.8964 43.712C78.3524 43.424 77.9204 42.9973 77.6004 42.432C77.291 41.8667 77.1364 41.1787 77.1364 40.368V35.232H78.5764V40.176C78.5764 41.04 78.795 41.7067 79.2324 42.176C79.6697 42.6347 80.267 42.864 81.0244 42.864C81.803 42.864 82.4164 42.624 82.8644 42.144C83.3124 41.664 83.5364 40.9653 83.5364 40.048V35.232H84.9924Z" fill="white"/>
<path d="M28.576 169.4V167.336H32.432V179H30.128V169.4H28.576ZM37.7489 176.472C38.7729 175.619 39.5889 174.909 40.1969 174.344C40.8049 173.768 41.3115 173.171 41.7169 172.552C42.1222 171.933 42.3249 171.325 42.3249 170.728C42.3249 170.184 42.1969 169.757 41.9409 169.448C41.6849 169.139 41.2902 168.984 40.7569 168.984C40.2235 168.984 39.8129 169.165 39.5249 169.528C39.2369 169.88 39.0875 170.365 39.0769 170.984H36.9009C36.9435 169.704 37.3222 168.733 38.0369 168.072C38.7622 167.411 39.6795 167.08 40.7889 167.08C42.0049 167.08 42.9382 167.405 43.5889 168.056C44.2395 168.696 44.5649 169.544 44.5649 170.6C44.5649 171.432 44.3409 172.227 43.8929 172.984C43.4449 173.741 42.9329 174.403 42.3569 174.968C41.7809 175.523 41.0289 176.195 40.1009 176.984H44.8209V178.84H36.9169V177.176L37.7489 176.472ZM48.6644 170.408C48.7177 169.341 49.091 168.52 49.7844 167.944C50.4884 167.357 51.411 167.064 52.5524 167.064C53.331 167.064 53.9977 167.203 54.5524 167.48C55.107 167.747 55.523 168.115 55.8004 168.584C56.0884 169.043 56.2324 169.565 56.2324 170.152C56.2324 170.824 56.0564 171.395 55.7044 171.864C55.363 172.323 54.9524 172.632 54.4724 172.792V172.856C55.091 173.048 55.571 173.389 55.9124 173.88C56.2644 174.371 56.4404 175 56.4404 175.768C56.4404 176.408 56.291 176.979 55.9924 177.48C55.7044 177.981 55.2724 178.376 54.6964 178.664C54.131 178.941 53.4484 179.08 52.6484 179.08C51.443 179.08 50.4617 178.776 49.7044 178.168C48.947 177.56 48.547 176.664 48.5044 175.48H50.6804C50.7017 176.003 50.8777 176.424 51.2084 176.744C51.5497 177.053 52.0137 177.208 52.6004 177.208C53.1444 177.208 53.5604 177.059 53.8484 176.76C54.147 176.451 54.2964 176.056 54.2964 175.576C54.2964 174.936 54.0937 174.477 53.6884 174.2C53.283 173.923 52.6537 173.784 51.8004 173.784H51.3364V171.944H51.8004C53.315 171.944 54.0724 171.437 54.0724 170.424C54.0724 169.965 53.9337 169.608 53.6564 169.352C53.3897 169.096 53.0004 168.968 52.4884 168.968C51.987 168.968 51.5977 169.107 51.3204 169.384C51.0537 169.651 50.899 169.992 50.8564 170.408H48.6644ZM60.5145 176.728V174.968L65.7465 167.48H68.3545V174.776H69.7625V176.728H68.3545V179H66.1145V176.728H60.5145ZM66.2585 169.88L62.9785 174.776H66.2585V169.88ZM79.5291 169.4V167.336H83.3851V179H81.0811V169.4H79.5291ZM88.702 176.472C89.726 175.619 90.542 174.909 91.15 174.344C91.758 173.768 92.2647 173.171 92.67 172.552C93.0753 171.933 93.278 171.325 93.278 170.728C93.278 170.184 93.15 169.757 92.894 169.448C92.638 169.139 92.2433 168.984 91.71 168.984C91.1767 168.984 90.766 169.165 90.478 169.528C90.19 169.88 90.0407 170.365 90.03 170.984H87.854C87.8967 169.704 88.2753 168.733 88.99 168.072C89.7153 167.411 90.6327 167.08 91.742 167.08C92.958 167.08 93.8913 167.405 94.542 168.056C95.1927 168.696 95.518 169.544 95.518 170.6C95.518 171.432 95.294 172.227 94.846 172.984C94.398 173.741 93.886 174.403 93.31 174.968C92.734 175.523 91.982 176.195 91.054 176.984H95.774V178.84H87.87V177.176L88.702 176.472ZM99.6175 170.408C99.6708 169.341 100.044 168.52 100.738 167.944C101.442 167.357 102.364 167.064 103.506 167.064C104.284 167.064 104.951 167.203 105.506 167.48C106.06 167.747 106.476 168.115 106.754 168.584C107.042 169.043 107.186 169.565 107.186 170.152C107.186 170.824 107.01 171.395 106.658 171.864C106.316 172.323 105.906 172.632 105.426 172.792V172.856C106.044 173.048 106.524 173.389 106.866 173.88C107.218 174.371 107.394 175 107.394 175.768C107.394 176.408 107.244 176.979 106.946 177.48C106.658 177.981 106.226 178.376 105.65 178.664C105.084 178.941 104.402 179.08 103.602 179.08C102.396 179.08 101.415 178.776 100.658 178.168C99.9002 177.56 99.5002 176.664 99.4575 175.48H101.634C101.655 176.003 101.831 176.424 102.162 176.744C102.503 177.053 102.967 177.208 103.554 177.208C104.098 177.208 104.514 177.059 104.802 176.76C105.1 176.451 105.25 176.056 105.25 175.576C105.25 174.936 105.047 174.477 104.642 174.2C104.236 173.923 103.607 173.784 102.754 173.784H102.29V171.944H102.754C104.268 171.944 105.026 171.437 105.026 170.424C105.026 169.965 104.887 169.608 104.61 169.352C104.343 169.096 103.954 168.968 103.442 168.968C102.94 168.968 102.551 169.107 102.274 169.384C102.007 169.651 101.852 169.992 101.81 170.408H99.6175ZM111.468 176.728V174.968L116.7 167.48H119.308V174.776H120.716V176.728H119.308V179H117.068V176.728H111.468ZM117.212 169.88L113.932 174.776H117.212V169.88ZM130.482 169.4V167.336H134.338V179H132.034V169.4H130.482ZM139.655 176.472C140.679 175.619 141.495 174.909 142.103 174.344C142.711 173.768 143.218 173.171 143.623 172.552C144.028 171.933 144.231 171.325 144.231 170.728C144.231 170.184 144.103 169.757 143.847 169.448C143.591 169.139 143.196 168.984 142.663 168.984C142.13 168.984 141.719 169.165 141.431 169.528C141.143 169.88 140.994 170.365 140.983 170.984H138.807C138.85 169.704 139.228 168.733 139.943 168.072C140.668 167.411 141.586 167.08 142.695 167.08C143.911 167.08 144.844 167.405 145.495 168.056C146.146 168.696 146.471 169.544 146.471 170.6C146.471 171.432 146.247 172.227 145.799 172.984C145.351 173.741 144.839 174.403 144.263 174.968C143.687 175.523 142.935 176.195 142.007 176.984H146.727V178.84H138.823V177.176L139.655 176.472ZM150.571 170.408C150.624 169.341 150.997 168.52 151.691 167.944C152.395 167.357 153.317 167.064 154.459 167.064C155.237 167.064 155.904 167.203 156.459 167.48C157.013 167.747 157.429 168.115 157.707 168.584C157.995 169.043 158.139 169.565 158.139 170.152C158.139 170.824 157.963 171.395 157.611 171.864C157.269 172.323 156.859 172.632 156.379 172.792V172.856C156.997 173.048 157.477 173.389 157.819 173.88C158.171 174.371 158.347 175 158.347 175.768C158.347 176.408 158.197 176.979 157.899 177.48C157.611 177.981 157.179 178.376 156.603 178.664C156.037 178.941 155.355 179.08 154.555 179.08C153.349 179.08 152.368 178.776 151.611 178.168C150.853 177.56 150.453 176.664 150.411 175.48H152.587C152.608 176.003 152.784 176.424 153.115 176.744C153.456 177.053 153.92 177.208 154.507 177.208C155.051 177.208 155.467 177.059 155.755 176.76C156.053 176.451 156.203 176.056 156.203 175.576C156.203 174.936 156 174.477 155.595 174.2C155.189 173.923 154.56 173.784 153.707 173.784H153.243V171.944H153.707C155.221 171.944 155.979 171.437 155.979 170.424C155.979 169.965 155.84 169.608 155.563 169.352C155.296 169.096 154.907 168.968 154.395 168.968C153.893 168.968 153.504 169.107 153.227 169.384C152.96 169.651 152.805 169.992 152.763 170.408H150.571ZM162.421 176.728V174.968L167.653 167.48H170.261V174.776H171.669V176.728H170.261V179H168.021V176.728H162.421ZM168.165 169.88L164.885 174.776H168.165V169.88ZM181.435 169.4V167.336H185.291V179H182.987V169.4H181.435ZM190.608 176.472C191.632 175.619 192.448 174.909 193.056 174.344C193.664 173.768 194.171 173.171 194.576 172.552C194.982 171.933 195.184 171.325 195.184 170.728C195.184 170.184 195.056 169.757 194.8 169.448C194.544 169.139 194.15 168.984 193.616 168.984C193.083 168.984 192.672 169.165 192.384 169.528C192.096 169.88 191.947 170.365 191.936 170.984H189.76C189.803 169.704 190.182 168.733 190.896 168.072C191.622 167.411 192.539 167.08 193.648 167.08C194.864 167.08 195.798 167.405 196.448 168.056C197.099 168.696 197.424 169.544 197.424 170.6C197.424 171.432 197.2 172.227 196.752 172.984C196.304 173.741 195.792 174.403 195.216 174.968C194.64 175.523 193.888 176.195 192.96 176.984H197.68V178.84H189.776V177.176L190.608 176.472ZM201.524 170.408C201.577 169.341 201.95 168.52 202.644 167.944C203.348 167.357 204.27 167.064 205.412 167.064C206.19 167.064 206.857 167.203 207.412 167.48C207.966 167.747 208.382 168.115 208.66 168.584C208.948 169.043 209.092 169.565 209.092 170.152C209.092 170.824 208.916 171.395 208.564 171.864C208.222 172.323 207.812 172.632 207.332 172.792V172.856C207.95 173.048 208.43 173.389 208.772 173.88C209.124 174.371 209.3 175 209.3 175.768C209.3 176.408 209.15 176.979 208.852 177.48C208.564 177.981 208.132 178.376 207.556 178.664C206.99 178.941 206.308 179.08 205.508 179.08C204.302 179.08 203.321 178.776 202.564 178.168C201.806 177.56 201.406 176.664 201.364 175.48H203.54C203.561 176.003 203.737 176.424 204.068 176.744C204.409 177.053 204.873 177.208 205.46 177.208C206.004 177.208 206.42 177.059 206.708 176.76C207.006 176.451 207.156 176.056 207.156 175.576C207.156 174.936 206.953 174.477 206.548 174.2C206.142 173.923 205.513 173.784 204.66 173.784H204.196V171.944H204.66C206.174 171.944 206.932 171.437 206.932 170.424C206.932 169.965 206.793 169.608 206.516 169.352C206.249 169.096 205.86 168.968 205.348 168.968C204.846 168.968 204.457 169.107 204.18 169.384C203.913 169.651 203.758 169.992 203.716 170.408H201.524ZM213.374 176.728V174.968L218.606 167.48H221.214V174.776H222.622V176.728H221.214V179H218.974V176.728H213.374ZM219.118 169.88L215.838 174.776H219.118V169.88Z" fill="white"/>
<path d="M32.716 150.084C31.932 150.084 31.212 149.9 30.556 149.532C29.9 149.164 29.38 148.656 28.996 148.008C28.612 147.352 28.42 146.612 28.42 145.788C28.42 144.972 28.612 144.24 28.996 143.592C29.38 142.936 29.9 142.424 30.556 142.056C31.212 141.688 31.932 141.504 32.716 141.504C33.508 141.504 34.228 141.688 34.876 142.056C35.532 142.424 36.048 142.936 36.424 143.592C36.808 144.24 37 144.972 37 145.788C37 146.612 36.808 147.352 36.424 148.008C36.048 148.656 35.532 149.164 34.876 149.532C34.22 149.9 33.5 150.084 32.716 150.084ZM32.716 148.584C33.22 148.584 33.664 148.472 34.048 148.248C34.432 148.016 34.732 147.688 34.948 147.264C35.164 146.84 35.272 146.348 35.272 145.788C35.272 145.228 35.164 144.74 34.948 144.324C34.732 143.9 34.432 143.576 34.048 143.352C33.664 143.128 33.22 143.016 32.716 143.016C32.212 143.016 31.764 143.128 31.372 143.352C30.988 143.576 30.688 143.9 30.472 144.324C30.256 144.74 30.148 145.228 30.148 145.788C30.148 146.348 30.256 146.84 30.472 147.264C30.688 147.688 30.988 148.016 31.372 148.248C31.764 148.472 32.212 148.584 32.716 148.584ZM47.9819 141.624V150H46.3019V144.552L44.0579 150H42.7859L40.5299 144.552V150H38.8499V141.624H40.7579L43.4219 147.852L46.0859 141.624H47.9819ZM51.9228 141.624V150H50.2428V141.624H51.9228ZM63.4741 144.144C63.2821 143.792 63.0181 143.524 62.6821 143.34C62.3461 143.156 61.9541 143.064 61.5061 143.064C61.0101 143.064 60.5701 143.176 60.1861 143.4C59.8021 143.624 59.5021 143.944 59.2861 144.36C59.0701 144.776 58.9621 145.256 58.9621 145.8C58.9621 146.36 59.0701 146.848 59.2861 147.264C59.5101 147.68 59.8181 148 60.2101 148.224C60.6021 148.448 61.0581 148.56 61.5781 148.56C62.2181 148.56 62.7421 148.392 63.1501 148.056C63.5581 147.712 63.8261 147.236 63.9541 146.628H61.0741V145.344H65.6101V146.808C65.4981 147.392 65.2581 147.932 64.8901 148.428C64.5221 148.924 64.0461 149.324 63.4621 149.628C62.8861 149.924 62.2381 150.072 61.5181 150.072C60.7101 150.072 59.9781 149.892 59.3221 149.532C58.6741 149.164 58.1621 148.656 57.7861 148.008C57.4181 147.36 57.2341 146.624 57.2341 145.8C57.2341 144.976 57.4181 144.24 57.7861 143.592C58.1621 142.936 58.6741 142.428 59.3221 142.068C59.9781 141.7 60.7061 141.516 61.5061 141.516C62.4501 141.516 63.2701 141.748 63.9661 142.212C64.6621 142.668 65.1421 143.312 65.4061 144.144H63.4741ZM69.109 141.624V146.808C69.109 147.376 69.257 147.812 69.553 148.116C69.849 148.412 70.265 148.56 70.801 148.56C71.345 148.56 71.765 148.412 72.061 148.116C72.357 147.812 72.505 147.376 72.505 146.808V141.624H74.197V146.796C74.197 147.508 74.041 148.112 73.729 148.608C73.425 149.096 73.013 149.464 72.493 149.712C71.981 149.96 71.409 150.084 70.777 150.084C70.153 150.084 69.585 149.96 69.073 149.712C68.569 149.464 68.169 149.096 67.873 148.608C67.577 148.112 67.429 147.508 67.429 146.796V141.624H69.109ZM79.3122 150.084C78.7282 150.084 78.2002 149.984 77.7282 149.784C77.2642 149.584 76.8962 149.296 76.6242 148.92C76.3522 148.544 76.2122 148.1 76.2042 147.588H78.0042C78.0282 147.932 78.1482 148.204 78.3642 148.404C78.5882 148.604 78.8922 148.704 79.2762 148.704C79.6682 148.704 79.9762 148.612 80.2002 148.428C80.4242 148.236 80.5362 147.988 80.5362 147.684C80.5362 147.436 80.4602 147.232 80.3082 147.072C80.1562 146.912 79.9642 146.788 79.7322 146.7C79.5082 146.604 79.1962 146.5 78.7962 146.388C78.2522 146.228 77.8082 146.072 77.4642 145.92C77.1282 145.76 76.8362 145.524 76.5882 145.212C76.3482 144.892 76.2282 144.468 76.2282 143.94C76.2282 143.444 76.3522 143.012 76.6002 142.644C76.8482 142.276 77.1962 141.996 77.6442 141.804C78.0922 141.604 78.6042 141.504 79.1802 141.504C80.0442 141.504 80.7442 141.716 81.2802 142.14C81.8242 142.556 82.1242 143.14 82.1802 143.892H80.3322C80.3162 143.604 80.1922 143.368 79.9602 143.184C79.7362 142.992 79.4362 142.896 79.0602 142.896C78.7322 142.896 78.4682 142.98 78.2682 143.148C78.0762 143.316 77.9802 143.56 77.9802 143.88C77.9802 144.104 78.0522 144.292 78.1962 144.444C78.3482 144.588 78.5322 144.708 78.7482 144.804C78.9722 144.892 79.2842 144.996 79.6842 145.116C80.2282 145.276 80.6722 145.436 81.0162 145.596C81.3602 145.756 81.6562 145.996 81.9042 146.316C82.1522 146.636 82.2762 147.056 82.2762 147.576C82.2762 148.024 82.1602 148.44 81.9282 148.824C81.6962 149.208 81.3562 149.516 80.9082 149.748C80.4602 149.972 79.9282 150.084 79.3122 150.084ZM90.0327 141.624V142.98H87.8007V150H86.1207V142.98H83.8887V141.624H90.0327ZM98.5185 141.624L95.6865 147.084V150H94.0065V147.084L91.1625 141.624H93.0585L94.8585 145.452L96.6465 141.624H98.5185Z" fill="white"/>
<path d="M183.142 145.512C183.142 144.128 183.39 143.044 183.886 142.26C184.39 141.476 185.222 141.084 186.382 141.084C187.542 141.084 188.37 141.476 188.866 142.26C189.37 143.044 189.622 144.128 189.622 145.512C189.622 146.904 189.37 147.996 188.866 148.788C188.37 149.58 187.542 149.976 186.382 149.976C185.222 149.976 184.39 149.58 183.886 148.788C183.39 147.996 183.142 146.904 183.142 145.512ZM187.966 145.512C187.966 144.92 187.926 144.424 187.846 144.024C187.774 143.616 187.622 143.284 187.39 143.028C187.166 142.772 186.83 142.644 186.382 142.644C185.934 142.644 185.594 142.772 185.362 143.028C185.138 143.284 184.986 143.616 184.906 144.024C184.834 144.424 184.798 144.92 184.798 145.512C184.798 146.12 184.834 146.632 184.906 147.048C184.978 147.456 185.13 147.788 185.362 148.044C185.594 148.292 185.934 148.416 186.382 148.416C186.83 148.416 187.17 148.292 187.402 148.044C187.634 147.788 187.786 147.456 187.858 147.048C187.93 146.632 187.966 146.12 187.966 145.512ZM196.036 143.436C195.956 143.1 195.816 142.848 195.616 142.68C195.424 142.512 195.144 142.428 194.776 142.428C194.224 142.428 193.816 142.652 193.552 143.1C193.296 143.54 193.164 144.26 193.156 145.26C193.348 144.94 193.628 144.692 193.996 144.516C194.364 144.332 194.764 144.24 195.196 144.24C195.716 144.24 196.176 144.352 196.576 144.576C196.976 144.8 197.288 145.128 197.512 145.56C197.736 145.984 197.848 146.496 197.848 147.096C197.848 147.664 197.732 148.172 197.5 148.62C197.276 149.06 196.944 149.404 196.504 149.652C196.064 149.9 195.54 150.024 194.932 150.024C194.1 150.024 193.444 149.84 192.964 149.472C192.492 149.104 192.16 148.592 191.968 147.936C191.784 147.272 191.692 146.456 191.692 145.488C191.692 144.024 191.944 142.92 192.448 142.176C192.952 141.424 193.748 141.048 194.836 141.048C195.676 141.048 196.328 141.276 196.792 141.732C197.256 142.188 197.524 142.756 197.596 143.436H196.036ZM194.812 145.62C194.388 145.62 194.032 145.744 193.744 145.992C193.456 146.24 193.312 146.6 193.312 147.072C193.312 147.544 193.444 147.916 193.708 148.188C193.98 148.46 194.36 148.596 194.848 148.596C195.28 148.596 195.62 148.464 195.868 148.2C196.124 147.936 196.252 147.58 196.252 147.132C196.252 146.668 196.128 146.3 195.88 146.028C195.64 145.756 195.284 145.62 194.812 145.62ZM204.468 138.636L201.228 152.172H199.584L202.824 138.636H204.468ZM206.74 148.104C207.508 147.464 208.12 146.932 208.576 146.508C209.032 146.076 209.412 145.628 209.716 145.164C210.02 144.7 210.172 144.244 210.172 143.796C210.172 143.388 210.076 143.068 209.884 142.836C209.692 142.604 209.396 142.488 208.996 142.488C208.596 142.488 208.288 142.624 208.072 142.896C207.856 143.16 207.744 143.524 207.736 143.988H206.104C206.136 143.028 206.42 142.3 206.956 141.804C207.5 141.308 208.188 141.06 209.02 141.06C209.932 141.06 210.632 141.304 211.12 141.792C211.608 142.272 211.852 142.908 211.852 143.7C211.852 144.324 211.684 144.92 211.348 145.488C211.012 146.056 210.628 146.552 210.196 146.976C209.764 147.392 209.2 147.896 208.504 148.488H212.044V149.88H206.116V148.632L206.74 148.104ZM213.63 148.296V146.976L217.554 141.36H219.51V146.832H220.566V148.296H219.51V150H217.83V148.296H213.63ZM217.938 143.16L215.478 146.832H217.938V143.16Z" fill="white"/>
<g clip-path="url(#clip1_6401_464)">
<path d="M314.143 27.2857C316.024 30.5433 317.014 34.2385 317.014 38C317.014 41.7615 316.024 45.4567 314.143 48.7143M309.429 29.6428C310.896 32.1837 311.668 35.066 311.668 38C311.668 40.934 310.896 43.8162 309.429 46.3571M304.929 31.8071C305.989 33.6639 306.548 35.7702 306.548 37.9143C306.548 40.0583 305.989 42.1646 304.929 44.0214M300.429 34.1428C301.193 35.2998 301.598 36.6362 301.598 38C301.598 39.3638 301.193 40.7002 300.429 41.8571" stroke="white" stroke-width="2.57143" stroke-linecap="round"/>
</g>
<rect x="8.5" y="6.5" width="330" height="198" rx="19.5" stroke="url(#paint1_linear_6401_464)"/>
</g>
<defs>
<filter id="filter0_d_6401_464" x="0" y="0" width="363" height="231" filterUnits="userSpaceOnUse" color-interpolation-filters="sRGB">
<feFlood flood-opacity="0" result="BackgroundImageFix"/>
<feColorMatrix in="SourceAlpha" type="matrix" values="0 0 0 0 0 0 0 0 0 0 0 0 0 0 0 0 0 0 127 0" result="hardAlpha"/>
<feOffset dx="8" dy="10"/>
<feGaussianBlur stdDeviation="8"/>
<feColorMatrix type="matrix" values="0 0 0 0 0 0 0 0 0 0 0 0 0 0 0 0 0 0 0.05 0"/>
<feBlend mode="normal" in2="BackgroundImageFix" result="effect1_dropShadow_6401_464"/>
<feBlend mode="normal" in="SourceGraphic" in2="effect1_dropShadow_6401_464" result="shape"/>
</filter>
<linearGradient id="paint0_linear_6401_464" x1="7.99485" y1="204.999" x2="183.75" y2="-87.3377" gradientUnits="userSpaceOnUse">
<stop stop-color="#013A53"/>
<stop offset="1" stop-color="#00B3FF"/>
</linearGradient>
<linearGradient id="paint1_linear_6401_464" x1="8" y1="14.4031" x2="331.422" y2="217.092" gradientUnits="userSpaceOnUse">
<stop stop-color="white"/>
<stop offset="1" stop-color="white" stop-opacity="0.2"/>
</linearGradient>
<clipPath id="clip0_6401_464">
<rect width="33" height="13" fill="white" transform="translate(279 155)"/>
</clipPath>
<clipPath id="clip1_6401_464">
<rect width="20" height="24" fill="white" transform="translate(299 26)"/>
</clipPath>
</defs>
</svg>
